<?xml version="1.0" encoding="UTF-8"?>
<svg width="26px" height="15px" viewBox="0 0 26 15" version="1.1" xmlns="http://www.w3.org/2000/svg" xmlns:xlink="http://www.w3.org/1999/xlink">
    <!-- Generator: Sketch 58 (84663) - https://sketch.com -->
    <title>common 06</title>
    <desc>Created with Sketch.</desc>
    <g id="Page-1" stroke="none" stroke-width="1" fill="none" fill-rule="evenodd">
        <g id="Home-Concept-4" transform="translate(-1224.000000, -4734.000000)" fill="#1D2B4B" fill-rule="nonzero">
            <g id="FAQs" transform="translate(-18.000000, 4506.000000)">
                <g id="FAQ" transform="translate(538.000000, 199.000000)">
                    <g id="common-06" transform="translate(716.944444, 36.444444) rotate(-270.000000) translate(-716.944444, -36.444444) translate(709.944444, 23.944444)">
                        <path d="M13.5443884,2.65549947 C14.1518705,2.04801722 14.1518705,1.0630939 13.5443884,0.455611675 C12.9369061,-0.151870562 11.9519828,-0.151870562 11.3445005,0.455611675 L0.455611644,11.3445005 C-0.151870522,11.9519828 -0.151870522,12.9369061 0.455611644,13.5443884 L11.3445005,24.4332772 C11.9519828,25.0407594 12.9369061,25.0407594 13.5443884,24.4332772 C14.1518705,23.825795 14.1518705,22.8408717 13.5443884,22.2333894 L3.7554433,12.4444444 L13.5443884,2.65549947 Z" id="Path-82" transform="translate(7.000000, 12.444444) scale(-1, 1) translate(-7.000000, -12.444444) "></path>
                    </g>
                </g>
            </g>
        </g>
    </g>
</svg>