<?xml version="1.0" encoding="UTF-8"?>
<svg width="119px" height="38px" viewBox="0 0 119 38" version="1.1" xmlns="http://www.w3.org/2000/svg" xmlns:xlink="http://www.w3.org/1999/xlink">
    <title>PIXELSFRAMEWORK</title>
    <g id="Page-1" stroke="none" stroke-width="1" fill="none" fill-rule="evenodd">
        <path d="M3.23,14 L3.23,9.41 L5.192,9.41 C7.784,9.41 9.566,7.736 9.566,5.324 C9.566,2.948 7.784,1.238 5.192,1.238 L0.386,1.238 L0.386,14 L3.23,14 Z M4.904,6.962 L3.248,6.962 L3.248,3.704 L4.904,3.704 C5.984,3.704 6.722,4.316 6.722,5.342 C6.722,6.332 5.984,6.962 4.904,6.962 Z M14.3,14 L14.3,1.238 L11.42,1.238 L11.42,14 L14.3,14 Z M19.358,14 L21.86,9.86 L24.38,14 L27.836,14 L23.696,7.646 L27.8,1.238 L24.47,1.238 L21.95,5.378 L19.43,1.238 L16.01,1.238 L20.132,7.61 L16.01,14 L19.358,14 Z M37.664,14 L37.664,11.3 L32.408,11.3 L32.408,8.852 L37.16,8.852 L37.16,6.35 L32.408,6.35 L32.408,3.92 L37.646,3.92 L37.646,1.238 L29.564,1.238 L29.564,14 L37.664,14 Z M48.41,14 L48.41,11.282 L42.902,11.282 L42.902,1.238 L40.058,1.238 L40.058,14 L48.41,14 Z M54.548,14.27 C57.59,14.27 59.264,12.236 59.264,10.238 C59.264,8.42 58.004,6.854 55.574,6.404 L53.864,6.08 C52.982,5.918 52.604,5.468 52.604,4.856 C52.604,4.154 53.288,3.488 54.35,3.488 C55.898,3.488 56.384,4.496 56.474,5.09 L59.03,4.37 C58.76,2.876 57.554,0.968 54.368,0.968 C51.92,0.968 49.796,2.66 49.796,5.072 C49.796,6.962 51.11,8.402 53.27,8.816 L55.016,9.14 C55.862,9.302 56.384,9.77 56.384,10.418 C56.384,11.21 55.7,11.75 54.584,11.75 C52.838,11.75 52.046,10.724 51.938,9.554 L49.328,10.184 C49.508,11.984 51.02,14.27 54.548,14.27 Z M3.248,37 L3.248,32.23 L7.964,32.23 L7.964,29.638 L3.23,29.638 L3.23,26.938 L8.612,26.938 L8.612,24.238 L0.386,24.238 L0.386,37 L3.248,37 Z M13.454,37 L13.454,32.248 L14.462,32.248 L16.748,37 L19.88,37 L17.288,31.834 C18.854,31.276 19.808,29.962 19.808,28.234 C19.808,25.966 18.188,24.238 15.668,24.238 L10.61,24.238 L10.61,37 L13.454,37 Z M15.128,29.8 L13.454,29.8 L13.454,26.704 L15.128,26.704 C16.298,26.704 16.928,27.298 16.928,28.252 C16.928,29.152 16.298,29.8 15.128,29.8 Z M23.696,37 L24.614,34.408 L29.546,34.408 L30.464,37 L33.56,37 L28.808,24.238 L25.514,24.238 L20.708,37 L23.696,37 Z M28.646,31.816 L25.55,31.816 L27.116,27.406 L28.646,31.816 Z M37.826,37 L37.826,28.648 L41.156,37 L43.46,37 L46.79,28.54 L46.79,37 L49.58,37 L49.58,24.238 L45.674,24.238 L42.344,32.86 L38.834,24.238 L35.126,24.238 L35.126,37 L37.826,37 Z M60.452,37 L60.452,34.3 L55.196,34.3 L55.196,31.852 L59.948,31.852 L59.948,29.35 L55.196,29.35 L55.196,26.92 L60.434,26.92 L60.434,24.238 L52.352,24.238 L52.352,37 L60.452,37 Z M68.12,37 L70.856,28.54 L73.574,37 L76.508,37 L79.982,24.238 L77.066,24.238 L74.996,32.428 L72.35,24.238 L69.434,24.238 L66.788,32.41 L64.682,24.238 L61.658,24.238 L65.132,37 L68.12,37 Z M87.452,37.27 C91.034,37.27 94.076,34.66 94.076,30.628 C94.076,26.578 91.034,23.968 87.452,23.968 C83.852,23.968 80.81,26.578 80.81,30.628 C80.81,34.66 83.852,37.27 87.452,37.27 Z M87.452,34.462 C85.67,34.462 83.762,33.274 83.762,30.61 C83.762,27.946 85.67,26.74 87.452,26.74 C89.216,26.74 91.124,27.946 91.124,30.61 C91.124,33.274 89.216,34.462 87.452,34.462 Z M98.954,37 L98.954,32.248 L99.962,32.248 L102.248,37 L105.38,37 L102.788,31.834 C104.354,31.276 105.308,29.962 105.308,28.234 C105.308,25.966 103.688,24.238 101.168,24.238 L96.11,24.238 L96.11,37 L98.954,37 Z M100.628,29.8 L98.954,29.8 L98.954,26.704 L100.628,26.704 C101.798,26.704 102.428,27.298 102.428,28.252 C102.428,29.152 101.798,29.8 100.628,29.8 Z M110.258,37 L110.258,33.58 L111.698,31.978 L115.136,37 L118.682,37 L113.696,29.764 L118.664,24.238 L114.92,24.238 L110.258,29.602 L110.258,24.238 L107.414,24.238 L107.414,37 L110.258,37 Z" id="PIXELSFRAMEWORK" fill="#000000" fill-rule="nonzero"></path>
    </g>
</svg>