<?xml version="1.0" encoding="UTF-8"?>
<svg width="1554px" height="678px" viewBox="0 0 1554 678" version="1.1" xmlns="http://www.w3.org/2000/svg" xmlns:xlink="http://www.w3.org/1999/xlink">
    <!-- Generator: Sketch 57.1 (83088) - https://sketch.com -->
    <title>FiftyDigital - Positive</title>
    <desc>Created with Sketch.</desc>
    <g id="FiftyDigital---Positive" stroke="none" stroke-width="1" fill="none" fill-rule="evenodd">
        <g id="FiftyDigital-Positive" fill="#101827" fill-rule="nonzero">
            <polygon id="Path" points="64 283.6 0.4 283.6 0.4 0.2 183.1 0.2 183.1 60.2 63.6 60.2 63.6 120.2 168.7 120.2 168.7 177.8 64 177.8"></polygon>
            <polygon id="Path" points="296.7 283.6 232.7 283.6 232.7 0.2 296.7 0.2"></polygon>
            <polygon id="Path" points="415.8 283.6 352.2 283.6 352.2 0.2 534.9 0.2 534.9 60.2 415.4 60.2 415.4 120.2 520.5 120.2 520.5 177.8 415.8 177.8"></polygon>
            <polygon id="Path" points="808.7 60.5 721.2 60.5 721.2 283.6 658 283.6 658 60.5 570.9 60.5 570.9 0.1 808.7 0.1"></polygon>
            <polygon id="Path" points="924.3 165.3 826 0.2 900 0.2 958 105.3 1016.8 0.2 1087.2 0.2 987.7 165.3 987.7 283.6 924.5 283.6 924.5 165.3"></polygon>
            <path d="M102.8,671.5 L0.5,671.5 L0.5,388.1 L103.2,388.1 C146.1,388.1 180.6,400.9 206.5,426.5 C232.5,452.1 245.5,486.6 245.5,530 C245.5,573.4 232.5,607.9 206.5,633.3 C180.6,658.8 146,671.5 102.8,671.5 Z M63.6,611.9 L100.4,611.9 C123.6,611.9 142.6,605 157.4,591.1 C172.2,577.2 179.6,556.9 179.6,529.9 C179.6,502.7 172.2,482.2 157.4,468.3 C142.6,454.4 123.6,447.5 100.4,447.5 L63.6,447.5 L63.6,611.9 Z" id="Shape"></path>
            <polygon id="Path" points="354.7 671.5 290.7 671.5 290.7 388.1 354.7 388.1"></polygon>
            <path d="M677.6,671.5 L626.4,671.5 L622.4,642.7 C615.5,652.6 605.2,660.8 591.6,667.5 C578,674.2 561.8,677.5 542.8,677.5 C502.3,677.5 468.2,663.8 440.7,636.5 C413.1,609.2 399.3,573.7 399.3,530 C399.3,486.6 413.6,451.1 442.3,423.5 C470.9,395.9 505.8,382.1 546.8,382.1 C583.6,382.1 612.8,390.8 634.3,408.1 C655.9,425.4 670.4,445.9 677.9,469.7 L617.1,490.9 C614.2,478.9 606.9,467.7 595.3,457.1 C583.7,446.6 567.5,441.3 546.7,441.3 C524.8,441.3 505.5,448.8 488.5,463.9 C471.6,479 463.1,501 463.1,530.1 C463.1,558.4 471.2,580.4 487.5,596.3 C503.8,612.2 524,620.1 548.3,620.1 C569.1,620.1 585.3,615.1 597.1,605.1 C608.8,595.1 615.9,584.6 618.3,573.7 L533.2,573.7 L533.2,520 L677.5,520 L677.5,671.5 L677.6,671.5 Z" id="Path"></path>
            <polygon id="Path" points="794.8 671.5 730.8 671.5 730.8 388.1 794.8 388.1"></polygon>
            <polygon id="Path" points="1074.6 448.4 987 448.4 987 671.5 923.8 671.5 923.8 448.4 836.7 448.4 836.7 388 1074.5 388 1074.5 448.4"></polygon>
            <path d="M1270.5,671.5 L1250.1,613.9 L1140.6,613.9 L1120.2,671.5 L1053.8,671.5 L1160.5,388.1 L1233.7,388.1 L1339.2,671.5 L1270.5,671.5 Z M1196.1,458.4 L1161.3,556.3 L1230.1,556.3 L1196.1,458.4 Z" id="Shape"></path>
            <polygon id="Path" points="1553.1 671.5 1367.6 671.5 1367.6 388.1 1430.8 388.1 1430.8 611.2 1553.1 611.2"></polygon>
        </g>
    </g>
</svg>